<svg width="21" height="21" viewBox="0 0 21 21" fill="none" xmlns="http://www.w3.org/2000/svg">
<path d="M6.22997 2.51957C6.33157 2.41772 6.45226 2.3369 6.58514 2.28176C6.71802 2.22662 6.86048 2.19824 7.00434 2.19824C7.14821 2.19824 7.29066 2.22662 7.42354 2.28176C7.55642 2.3369 7.67712 2.41772 7.77872 2.51957L15.1375 9.87832C15.2186 9.95927 15.2829 10.0554 15.3268 10.1613C15.3708 10.2671 15.3934 10.3806 15.3934 10.4952C15.3934 10.6098 15.3708 10.7233 15.3268 10.8291C15.2829 10.935 15.2186 11.0311 15.1375 11.1121L7.77872 18.4708C7.34997 18.8996 6.65872 18.8996 6.22997 18.4708C5.80122 18.0421 5.80122 17.3508 6.22997 16.9221L12.6525 10.4996L6.22122 4.06832C5.80122 3.63957 5.80122 2.94832 6.22997 2.51957Z" fill="white"/>
</svg>
