<svg width="25" height="25" viewBox="0 0 30 25" fill="none" xmlns="http://www.w3.org/2000/svg">
<path d="M11.7191 24.4848L0.187874 12.9536C0.128311 12.8941 0.0810585 12.8235 0.0488186 12.7457C0.0165806 12.6679 -1.14441e-05 12.5845 -1.14441e-05 12.5004C-1.14441e-05 12.4162 0.0165806 12.3328 0.0488186 12.255C0.0810585 12.1773 0.128311 12.1066 0.187874 12.0471L11.7191 0.515864C11.8393 0.395656 12.0024 0.328125 12.1724 0.328125C12.3424 0.328125 12.5054 0.395657 12.6256 0.515864C12.7458 0.636072 12.8133 0.799107 12.8133 0.969106C12.8133 1.1391 12.7458 1.30214 12.6256 1.42235L2.18823 11.8597L28.8286 11.8597C28.9985 11.8597 29.1615 11.9272 29.2816 12.0474C29.4017 12.1675 29.4692 12.3305 29.4692 12.5004C29.4692 12.6703 29.4017 12.8332 29.2816 12.9533C29.1615 13.0735 28.9985 13.141 28.8286 13.141L2.18823 13.141L12.6256 23.5784C12.7458 23.6986 12.8133 23.8616 12.8133 24.0316C12.8133 24.2016 12.7458 24.3646 12.6256 24.4848C12.5054 24.6051 12.3424 24.6726 12.1724 24.6726C12.0024 24.6726 11.8393 24.6051 11.7191 24.4848Z" fill="white"/>
</svg>
