<svg width="20" height="20" viewBox="0 0 20 20" fill="none" xmlns="http://www.w3.org/2000/svg">
<path d="M7.90008 0.200195C9.36355 0.199946 10.7968 0.616757 12.0319 1.4018C13.267 2.18684 14.2528 3.30759 14.8738 4.63277C15.4948 5.95794 15.7253 7.43264 15.5383 8.88411C15.3513 10.3356 14.7545 11.7037 13.8179 12.8282L19.5957 18.6046C19.7197 18.7281 19.793 18.8935 19.8011 19.0683C19.8092 19.2431 19.7515 19.4146 19.6394 19.549C19.5273 19.6834 19.369 19.7709 19.1955 19.7944C19.0221 19.8178 18.8462 19.7754 18.7025 19.6756L18.6045 19.5958L12.8281 13.818C11.8778 14.6091 10.7509 15.1597 9.54278 15.4233C8.33467 15.6868 7.08085 15.6555 5.88739 15.3321C4.69392 15.0086 3.59592 14.4025 2.68623 13.5649C1.77654 12.7274 1.08194 11.6831 0.661175 10.5204C0.240407 9.35765 0.10585 8.11068 0.268884 6.88496C0.431919 5.65923 0.887749 4.49079 1.59782 3.47848C2.30789 2.46616 3.25132 1.63974 4.3483 1.06912C5.44529 0.498492 6.66356 0.200449 7.90008 0.200195ZM7.90008 1.6002C6.22922 1.6002 4.62679 2.26394 3.44531 3.44542C2.26383 4.6269 1.60008 6.22933 1.60008 7.9002C1.60008 9.57106 2.26383 11.1735 3.44531 12.355C4.62679 13.5364 6.22922 14.2002 7.90008 14.2002C9.57095 14.2002 11.1734 13.5364 12.3549 12.355C13.5363 11.1735 14.2001 9.57106 14.2001 7.9002C14.2001 6.22933 13.5363 4.6269 12.3549 3.44542C11.1734 2.26394 9.57095 1.6002 7.90008 1.6002Z" fill="#A4ABBD"/>
</svg>
