<svg width="18" height="17" viewBox="0 0 18 17" fill="none" xmlns="http://www.w3.org/2000/svg">
<path d="M8.92941 14.2752L4.72277 16.7752C4.53694 16.8919 4.34266 16.9419 4.13993 16.9252C3.9372 16.9085 3.75981 16.8419 3.60776 16.7252C3.45571 16.6085 3.33746 16.4629 3.25298 16.2882C3.16851 16.1129 3.15162 15.9169 3.2023 15.7002L4.31731 10.9752L0.592161 7.8002C0.42322 7.6502 0.3178 7.4792 0.275903 7.2872C0.23333 7.09586 0.245831 6.90853 0.313408 6.7252C0.380984 6.54186 0.482349 6.39186 0.617502 6.2752C0.752655 6.15853 0.93849 6.08353 1.17501 6.0502L6.0912 5.6252L7.99179 1.1752C8.07626 0.975196 8.20735 0.825195 8.38508 0.725195C8.56213 0.625195 8.74357 0.575195 8.92941 0.575195C9.11524 0.575195 9.29703 0.625195 9.47475 0.725195C9.6518 0.825195 9.78256 0.975196 9.86703 1.1752L11.7676 5.6252L16.6838 6.0502C16.9203 6.08353 17.1062 6.15853 17.2413 6.2752C17.3765 6.39186 17.4778 6.54186 17.5454 6.7252C17.613 6.90853 17.6258 7.09586 17.5839 7.2872C17.5414 7.4792 17.4356 7.6502 17.2667 7.8002L13.5415 10.9752L14.6565 15.7002C14.7072 15.9169 14.6903 16.1129 14.6058 16.2882C14.5214 16.4629 14.4031 16.6085 14.2511 16.7252C14.099 16.8419 13.9216 16.9085 13.7189 16.9252C13.5162 16.9419 13.3219 16.8919 13.136 16.7752L8.92941 14.2752Z" fill="#F7C954"/>
</svg>
